<?xml version="1.0" encoding="utf-8"?>
<!-- Generator: Adobe Illustrator 16.0.0, SVG Export Plug-In . SVG Version: 6.00 Build 0)  -->
<!DOCTYPE svg PUBLIC "-//W3C//DTD SVG 1.1//EN" "http://www.w3.org/Graphics/SVG/1.1/DTD/svg11.dtd">
<svg version="1.1" id="Layer_1" xmlns="http://www.w3.org/2000/svg" xmlns:xlink="http://www.w3.org/1999/xlink" x="0px" y="0px"
	 width="512px" height="512px" viewBox="0 0 512 512" enable-background="new 0 0 512 512" xml:space="preserve">
<g>
	<path fill-rule="evenodd" clip-rule="evenodd" fill="#09D312" d="M486.566,254.976c-10.235,21.778-19.887,43.859-30.948,65.209
		c-5.707,11.01-12.908,21.644-21.231,30.814c-14.893,16.403-30.919,31.811-47.006,47.069c-3.484,3.305-9.177,5.797-13.944,5.961
		c-19.35,0.664-38.738,0.275-57.914,0.275c-6.553-32.15,8.799-66.77,38.214-76.772c16.172-5.5,30.012-18.285,44.374-28.526
		c10.412-7.422,16.832-8.555,29.506-1.447c-12.394,12.671-24.484,25.038-36.583,37.398c-4.057,4.144-8.925,7.786-11.878,12.604
		c-1.596,2.598-1.283,8.504,0.656,10.518c1.849,1.915,8.644,2.369,10.339,0.624c22.871-23.553,50.683-43.069,62.556-75.794
		c3.822-10.538,8.732-20.686,13.253-30.965c5.34-12.145,10.163-13.317,20.607-5.166C486.566,249.51,486.566,252.243,486.566,254.976
		z"/>
	<path fill-rule="evenodd" clip-rule="evenodd" fill="#09D312" d="M25.433,246.778c10.46-8.153,15.213-6.951,20.607,5.214
		c1.103,2.486,2.49,4.892,3.247,7.479c11.9,40.711,39.973,69.774,69.984,97.473c4.173,3.851,8.48,6.396,13.248,1.44
		c4.571-4.749,2.69-9.185-1.465-13.312c-11.622-11.54-23.236-23.088-34.688-34.795c-3.983-4.07-7.486-8.612-11.44-13.205
		c10.047-6.537,19.178-6.113,27.208,0.912c16.836,14.734,35.738,25.707,56.068,34.985c19.192,8.761,26.429,26.686,29.233,46.321
		c1.097,7.672,0.18,15.631,0.18,25.014c-16.424,0-32.696-0.782-48.851,0.249c-12.909,0.822-21.52-3.978-31.19-12.459
		c-38.738-33.969-67.997-73.936-84.699-122.889c-1.707-5.008-4.923-9.499-7.439-14.23C25.433,252.243,25.433,249.51,25.433,246.778z
		"/>
	<path fill-rule="evenodd" clip-rule="evenodd" fill="#09D312" d="M193.491,25.434c8.914,5.305,19.374,9.087,26.419,16.234
		c13.817,14.02,14.606,36.44,4.213,53.046c-10.058,16.069-29.863,24.39-47.721,20.051c-20.19-4.905-33.8-20.707-35.465-41.174
		c-1.537-18.876,9.755-36.826,28.008-44.554c2.734-1.159,5.434-2.4,8.149-3.604C182.559,25.434,188.027,25.434,193.491,25.434z"/>
	<path fill-rule="evenodd" clip-rule="evenodd" fill="#09D312" d="M334.905,25.434c18.08,6.835,32.158,17.281,35.409,38.042
		c3.797,24.255-11.46,46.455-35.774,51.637c-22.354,4.764-45.789-9.871-52.109-32.545c-6.266-22.488,6.285-46.5,28.467-54.449
		c2.532-0.909,5.074-1.789,7.611-2.685C323.972,25.434,329.44,25.434,334.905,25.434z"/>
	<path fill-rule="evenodd" clip-rule="evenodd" fill="#09D312" d="M298.014,486.567c0-21.407,0-42.816,0-64.944
		c29.549,0,58.99,0,90.177,0c0,21.627,0,43.285,0,64.944C358.134,486.567,328.071,486.567,298.014,486.567z M317.272,465.964
		c5.684-5.326,11.712-8.306,12.429-12.249c1.205-6.646-4.781-8.418-10.924-8.298c-6.297,0.122-13.683-0.257-12.796,8.424
		C306.356,457.488,312.034,460.592,317.272,465.964z"/>
	<path fill-rule="evenodd" clip-rule="evenodd" fill="#09D312" d="M123.808,486.567c0-21.399,0-42.799,0-64.929
		c30.406,0,59.812,0,90.177,0c0,21.659,0,43.293,0,64.929C183.927,486.567,153.866,486.567,123.808,486.567z M192.097,443.362
		c-3.464,3.469-9.519,6.715-9.841,10.453c-0.63,7.322,5.992,8.278,12.283,8.234c5.989-0.042,11.506-1.063,11.725-8.086
		C206.512,446.053,200.58,445.037,192.097,443.362z"/>
	<path fill-rule="evenodd" clip-rule="evenodd" fill="#09D312" d="M340.785,316.418c-6.063-19.938-10.828-37.609-16.95-54.798
		c-2.566-7.205-7.1-14.252-12.381-19.806c-6.555-6.894-7.023-12.1-2.838-20.934c12.371-26.123,1.867-57.069-22.967-71.91
		c-3.202-1.913-6.572-3.54-11.238-6.036c7.047-5.372,13.248-10.573,19.986-14.942c1.964-1.273,5.771-0.977,8.208-0.036
		c15.327,5.912,30.42,5.632,45.985,0.574c3.942-1.281,10.115-0.393,13.489,2c39.116,27.722,58.979,66.792,65.081,113.501
		c1.445,11.061,1.743,22.271,2.54,32.994c-11.004,0-20.703,0-30.428,0c-2.9-17.793-5.53-36.937-9.307-55.851
		c-1.985-9.949-5.843-19.544-9.106-29.213c-1.872-5.54-4.033-12.101-11.759-9.555c-8.187,2.696-6.148,8.996-3.891,15.239
		c10.043,27.76,16.596,56.114,15.314,85.986c-0.3,6.975-2.52,11.568-8.37,14.868C361.34,304.608,350.58,310.819,340.785,316.418z"/>
	<path fill-rule="evenodd" clip-rule="evenodd" fill="#09D312" d="M113.355,276.953c-10.189,0-19.593,0-30.104,0
		c-0.792-20.564,1.783-41.264,7.662-61.552c10.104-34.865,29.153-63.578,58.858-84.941c4.781-3.437,8.851-4.579,14.787-2.038
		c12.633,5.406,26.507,6.602,38.872,1.051c10.656-4.783,17.289-1.078,24.448,5.182c3.027,2.648,6.002,5.356,9.286,8.29
		c-35.431,15.436-50.458,52.351-28.828,89.331c-22.24,22.811-31.619,51.501-34.854,86.25c-14.366-8.916-27.018-16.408-39.158-24.654
		c-2.082-1.412-2.566-6.008-2.786-9.204c-1.965-28.771,4.377-56.213,13.75-83.132c0.896-2.574,3.11-5.34,2.646-7.592
		c-0.836-4.055-3.234-7.787-4.982-11.656c-3.476,1.921-9.152,3.116-10.065,5.882c-5.64,17.093-10.924,34.377-14.891,51.922
		C115.238,252.3,114.776,265.028,113.355,276.953z"/>
	<path fill-rule="evenodd" clip-rule="evenodd" fill="#09D312" d="M200.435,339.16c-7.737-6.338-10.991-15.045-9.427-26.797
		c3.403-25.549,10.742-48.979,29.441-68.121c23.705,15.669,47.006,15.749,70.899,0.098c15.399,14.648,22.706,33.402,27.075,53.585
		c1.291,5.96,1.129,12.236,2.438,18.19c2.426,11.043-3.847,17.633-9.977,23.68c-6.324-13.716-12.443-27.156-18.748-40.51
		c-1.145-2.426-2.586-5.59-4.705-6.482c-3.564-1.503-7.779-1.459-11.721-2.065c-0.442,3.957-2.756,9.23-1.039,11.669
		c21.332,30.325,22.617,64.824,22.146,101.311c-27.121,13.714-54.107,13.319-81.669,0.12c-0.921-36.214,0.576-70.955,22.256-101.545
		c1.71-2.414-0.644-7.71-1.108-11.667c-4.095,0.855-10.508,0.364-11.906,2.78C215.819,308.208,208.382,323.667,200.435,339.16z"/>
	<path fill-rule="evenodd" clip-rule="evenodd" fill="#09D312" d="M256.387,239.115c-23,0.176-41.057-17.547-41.173-40.409
		c-0.116-22.931,17.593-41.136,40.356-41.492c22.496-0.351,40.994,17.921,41.162,40.659
		C296.905,220.939,279.297,238.938,256.387,239.115z"/>
	<path fill-rule="evenodd" clip-rule="evenodd" fill="#09D312" d="M317.272,465.964c-5.238-5.372-10.916-8.477-11.291-12.123
		c-0.887-8.681,6.499-8.302,12.796-8.424c6.143-0.12,12.129,1.651,10.924,8.298C328.984,457.658,322.956,460.638,317.272,465.964z"
		/>
	<path fill-rule="evenodd" clip-rule="evenodd" fill="#09D312" d="M192.097,443.362c8.482,1.676,14.415,2.691,14.167,10.602
		c-0.218,7.023-5.736,8.044-11.725,8.086c-6.291,0.044-12.913-0.912-12.283-8.234C182.579,450.076,188.633,446.83,192.097,443.362z"
		/>
</g>
</svg>
