<?xml version="1.0" encoding="utf-8"?>
<!-- Generator: Adobe Illustrator 16.0.0, SVG Export Plug-In . SVG Version: 6.00 Build 0)  -->
<!DOCTYPE svg PUBLIC "-//W3C//DTD SVG 1.1//EN" "http://www.w3.org/Graphics/SVG/1.1/DTD/svg11.dtd">
<svg version="1.1" id="Layer_1" xmlns="http://www.w3.org/2000/svg" xmlns:xlink="http://www.w3.org/1999/xlink" x="0px" y="0px"
	 width="512px" height="512px" viewBox="0 0 512 512" enable-background="new 0 0 512 512" xml:space="preserve">
<g>
	<g>
		<path fill-rule="evenodd" clip-rule="evenodd" fill="#09D312" d="M303.047,380.712c30.481,9.953,61.274,9.656,92.229,0.984
			c23.773-6.658,46.82-15.021,68.695-26.567c13.114-6.922,23.021-5.994,30.287,2.296c7.169,8.184,6.969,20.572-0.469,31.801
			c-3.814,5.756-8.84,10.304-14.419,14.217c-31.342,21.979-64.522,40.637-99.288,56.747c-20.314,9.413-40.646,5.692-61.01,3.104
			c-42.13-5.349-84.071-12.161-125.623-20.916c-12.143-2.559-21.602-0.091-30.732,7.301c-4.06,3.287-8.159,7.822-14.176,4.27
			c-5.474-3.234-5.332-8.801-4.978-14.27c2.354-36.355,4.99-72.698,6.895-109.078c0.594-11.339,5.262-16.673,16.526-17.94
			c30.414-3.423,60.536-11.86,91.449-6.618c29.607,5.02,58.028,14.754,86.63,23.653c7.828,2.435,15.57,5.173,23.469,7.345
			c8.354,2.299,13.936,7.013,15.459,15.771c1.647,9.488-2.129,16.817-9.664,22.237c-7.489,5.386-16.216,7.132-25.258,7.659
			C333.735,383.603,318.531,381.881,303.047,380.712z M154.002,442.807c12.629-9.195,24.41-14.376,39.655-11.056
			c41.157,8.969,82.811,15.466,124.573,20.938c20.32,2.663,40.663,6.647,60.942-3.309c31.796-15.608,62.668-32.639,91.88-52.654
			c5.609-3.843,10.963-8.091,14.53-14.066c3.465-5.804,5.632-12.139,0.88-17.954c-5.212-6.382-11.54-3.646-17.447-0.488
			c-18.313,9.787-37.608,17.102-57.31,23.594c-38.364,12.646-76.893,14.913-115.833,3.153c-8.206-2.479-16.351-5.338-22.754-11.433
			c-3.016-2.87-4.709-6.521-3.299-10.662c1.675-4.919,6.022-4.273,9.931-3.858c4.253,0.452,8.495,1.081,12.706,1.833
			c19.354,3.459,38.687,6.982,58.513,5.223c6.524-0.58,12.815-1.95,17.989-6.09c7.896-6.316,6.288-15.604-3.181-18.961
			c-4.699-1.665-9.546-2.912-14.314-4.378c-29.659-9.12-59.076-19.034-89.547-25.34c-32.495-6.726-63.854,2.464-95.61,6.195
			c-4.666,0.549-5.175,4.186-5.391,7.923c-0.574,9.989-1.145,19.979-1.77,29.964C157.479,388.009,155.784,414.633,154.002,442.807z
			 M299.599,379.872c-0.772-0.629-1.263-1.337-1.65-1.285c-1.146,0.153-2.253,0.607-3.375,0.945c0.613,0.26,1.22,0.712,1.842,0.737
			C297.365,380.308,298.327,380.048,299.599,379.872z"/>
		<path fill-rule="evenodd" clip-rule="evenodd" fill="#09D312" d="M493.602,170.906c0.329,69.277-55.568,125.669-124.892,125.996
			c-69.688,0.329-126.429-55.191-126.801-124.071c-0.378-70.193,55.32-126.87,124.878-127.075
			C437.09,45.548,493.268,100.991,493.602,170.906z M367.677,284.761c62.844,0.075,114.317-51.134,114.178-113.594
			c-0.139-62.116-51.009-112.913-113.439-113.271c-63.107-0.365-114.144,50.092-114.371,113.071
			C253.817,233.941,304.491,284.685,367.677,284.761z"/>
		<path fill-rule="evenodd" clip-rule="evenodd" fill="#09D312" d="M66.917,459.659c-12.869,0.007-25.742,0.212-38.605-0.053
			c-11.886-0.244-16.89-5.788-15.626-17.722c4.14-39.068,8.443-78.12,12.937-117.148c1.226-10.641,8.875-17.075,20.117-16.637
			c23.924,0.93,47.839,2.248,71.733,3.788c10.491,0.676,15.574,7.573,14.707,19.504c-2.199,30.293-4.647,60.566-6.987,90.848
			c-0.522,6.768-0.835,13.558-1.538,20.306c-1.17,11.229-6.874,16.771-18.134,17.039C92.66,459.89,79.786,459.656,66.917,459.659z
			 M67.012,449.143c6.788,0,13.577-0.003,20.365,0c24.307,0,24.728,0.04,26.976-24.217c2.832-30.575,4.929-61.218,7.243-91.839
			c0.368-4.873,1.633-10.483-6.272-10.888c-23.185-1.187-46.361-2.539-69.547-3.715c-5.938-0.3-9.183,2.561-9.856,8.729
			c-4.148,37.966-8.378,75.925-12.744,113.865c-0.69,5.996,1.032,8.385,7.398,8.175C42.709,448.851,54.865,449.136,67.012,449.143z"
			/>
		<path fill-rule="evenodd" clip-rule="evenodd" fill="#09D312" d="M299.599,379.872c-1.272,0.176-2.234,0.436-3.184,0.397
			c-0.622-0.025-1.229-0.478-1.842-0.737c1.122-0.338,2.229-0.792,3.375-0.945C298.337,378.535,298.827,379.243,299.599,379.872z"/>
		<path fill-rule="evenodd" clip-rule="evenodd" fill="#09D312" d="M396.831,130.281c-1.889,5.939-3.301,12.21-12.217,8.104
			c-5.593-2.577-11.705-3.195-17.834-2.334c-4.965,0.7-8.827,3.227-10.13,8.27c-1.379,5.342,1.573,9.044,5.933,11.361
			c5.966,3.17,12.24,5.751,18.308,8.736c11.908,5.855,20.694,13.854,20.233,28.622c-0.434,13.92-7.562,22.684-20.348,26.976
			c-5.546,1.865-5.352,5.884-5.172,10.216c0.214,5.114-1.725,8.2-7.273,8.315c-5.794,0.119-9.084-2.524-8.234-8.383
			c1.636-11.271-7.757-8.516-13.181-10.703c-5.729-2.313-13.673-2.614-9.703-12.478c2.008-4.986,4.508-7.706,10.495-5.066
			c6.169,2.717,12.661,5.206,19.617,4.412c6.293-0.716,12.119-2.979,13.822-9.895c1.726-7.019-2.285-11.724-8.035-14.743
			c-6.613-3.474-13.662-6.117-20.29-9.564c-9.833-5.114-16.478-12.849-16.106-24.498c0.377-11.824,6.569-20.307,17.579-24.526
			c5.188-1.988,7.294-4.764,6.879-10.226c-0.424-5.577,2.226-8.847,8.208-8.543c5.228,0.264,8.258,3.122,7.42,8.275
			c-1.451,8.923,5.469,8.228,10.473,9.874C391.423,123.848,397.039,123.385,396.831,130.281z"/>
		<path fill-rule="evenodd" clip-rule="evenodd" fill="#09D312" d="M74.459,443.115c-14.622,0.082-25.785-11.04-25.597-25.507
			c0.182-14.022,11.065-24.713,25.245-24.797c14.487-0.086,26.072,11.353,25.828,25.503
			C99.697,432.135,88.498,443.037,74.459,443.115z M89.432,418.471c0.306-7.993-6.478-15.231-14.563-15.539
			c-8.21-0.314-15.153,6.187-15.435,14.452c-0.292,8.521,5.869,15.135,14.325,15.379C82.093,433.004,89.121,426.598,89.432,418.471z
			"/>
	</g>
</g>
</svg>
