<?xml version="1.0" encoding="utf-8"?>
<!-- Generator: Adobe Illustrator 16.0.0, SVG Export Plug-In . SVG Version: 6.00 Build 0)  -->
<!DOCTYPE svg PUBLIC "-//W3C//DTD SVG 1.1//EN" "http://www.w3.org/Graphics/SVG/1.1/DTD/svg11.dtd">
<svg version="1.1" id="Layer_1" xmlns="http://www.w3.org/2000/svg" xmlns:xlink="http://www.w3.org/1999/xlink" x="0px" y="0px"
	 width="512px" height="512px" viewBox="0 0 512 512" enable-background="new 0 0 512 512" xml:space="preserve">
<g>
	<g>
		<g>
			<path fill="#2ABC15" d="M375.451,315.733c0-4.71-3.822-8.533-8.533-8.533h-51.199c-4.71,0-8.533,3.823-8.533,8.533
				s3.823,8.533,8.533,8.533h51.199C371.629,324.267,375.451,320.444,375.451,315.733z"/>
			<path fill="#2ABC15" d="M341.317,93.866V51.199c0-4.71-3.823-8.532-8.533-8.532s-8.532,3.822-8.532,8.532v42.667
				c0,23.526,19.14,42.667,42.666,42.667h76.801v162.134c0,4.71,3.822,8.532,8.533,8.532c4.709,0,8.532-3.822,8.532-8.532V128
				c0-4.71-3.823-8.533-8.532-8.533h-85.334C352.803,119.467,341.317,107.981,341.317,93.866z"/>
			<path fill="#2ABC15" d="M366.918,204.8H298.65c-4.71,0-8.533,3.823-8.533,8.533s3.823,8.532,8.533,8.532h68.268
				c4.709,0,8.532-3.822,8.532-8.532C375.451,208.623,371.629,204.8,366.918,204.8z"/>
			<path fill="#2ABC15" d="M273.052,213.333c0-4.71-3.823-8.533-8.533-8.533h-51.2c-4.71,0-8.533,3.823-8.533,8.533
				s3.823,8.532,8.533,8.532h51.2C269.228,221.866,273.052,218.044,273.052,213.333z"/>
			<path fill="#2ABC15" d="M213.317,256c-4.71,0-8.533,3.822-8.533,8.532s3.823,8.533,8.533,8.533h17.067
				c4.71,0,8.532-3.823,8.532-8.533S235.094,256,230.385,256H213.317z"/>
			<path fill="#2ABC15" d="M213.317,170.667h85.333c4.71,0,8.533-3.823,8.533-8.533s-3.823-8.533-8.533-8.533h-85.333
				c-4.71,0-8.533,3.823-8.533,8.533S208.607,170.667,213.317,170.667z"/>
			<path fill="#2ABC15" d="M264.517,273.067h85.333c4.71,0,8.533-3.822,8.533-8.533c0-4.71-3.823-8.532-8.533-8.532h-85.333
				c-4.71,0-8.533,3.822-8.533,8.532C255.984,269.244,259.807,273.067,264.517,273.067z"/>
			<path fill="#2ABC15" d="M315.718,358.4c-4.71,0-8.533,3.823-8.533,8.533s3.823,8.533,8.533,8.533h17.066
				c4.71,0,8.533-3.823,8.533-8.533s-3.823-8.533-8.533-8.533H315.718z"/>
			<path fill="#2ABC15" d="M281.584,307.199h-68.267c-4.71,0-8.533,3.823-8.533,8.533s3.823,8.533,8.533,8.533h68.267
				c4.71,0,8.533-3.823,8.533-8.533S286.294,307.199,281.584,307.199z"/>
			<path fill="#2ABC15" d="M281.584,358.4h-68.267c-4.71,0-8.533,3.823-8.533,8.533s3.823,8.533,8.533,8.533h68.267
				c4.71,0,8.533-3.823,8.533-8.533S286.294,358.4,281.584,358.4z"/>
			<path fill="#2ABC15" d="M484.755,351.497l-17.067-17.067c-13.116-13.116-33.102-13.09-46.199,0L309.684,446.234
				c-1.596,1.597-2.5,3.772-2.5,6.033v51.2c0,4.71,3.823,8.533,8.533,8.533h51.2c2.261,0,4.437-0.904,6.032-2.5l111.804-111.805
				C498.348,384.102,498.348,365.099,484.755,351.497z M410.454,369.596l13.534,13.534l-74.138,74.138l-13.534-13.534
				L410.454,369.596z M324.252,494.933v-39.134l39.134,39.134H324.252z M375.451,482.866l-13.533-13.534l74.138-74.138
				l13.534,13.534L375.451,482.866z M472.688,385.63l-11.034,11.034L422.52,357.53l11.034-11.033c6.74-6.733,15.292-6.768,22.066,0
				l17.067,17.066C479.592,370.475,479.592,378.726,472.688,385.63z"/>
			<path fill="#2ABC15" d="M281.584,494.933H59.717c-14.113,0-25.6-11.486-25.6-25.601V42.667c0-14.114,11.486-25.601,25.6-25.601
				h269.535L412.084,99.9c3.337,3.337,8.73,3.337,12.066,0c3.337-3.336,3.337-8.729,0-12.065L338.817,2.5
				c-1.596-1.604-3.772-2.5-6.033-2.5H59.717C36.191,0,17.052,19.14,17.052,42.667v426.667c0,23.525,19.14,42.666,42.667,42.666
				h221.866c4.71,0,8.533-3.822,8.533-8.532S286.294,494.933,281.584,494.933z"/>
			<path fill="#2ABC15" d="M281.584,409.6h-68.267c-4.71,0-8.533,3.823-8.533,8.533s3.823,8.533,8.533,8.533h68.267
				c4.71,0,8.533-3.823,8.533-8.533S286.294,409.6,281.584,409.6z"/>
			<path fill="#2ABC15" d="M170.651,162.133c0-4.71-3.823-8.533-8.533-8.533h-51.2c-4.71,0-8.532,3.823-8.532,8.533v51.2
				c0,4.71,3.822,8.532,8.532,8.532h51.2c4.71,0,8.533-3.822,8.533-8.532V162.133z M153.584,204.8h-34.133v-34.133h34.133V204.8z"/>
			<path fill="#2ABC15" d="M110.917,426.666h51.2c4.71,0,8.533-3.822,8.533-8.532v-51.2c0-4.71-3.823-8.533-8.533-8.533h-51.2
				c-4.71,0-8.532,3.823-8.532,8.533v51.2C102.385,422.844,106.207,426.666,110.917,426.666z M119.451,375.467h34.133V409.6h-34.133
				V375.467z"/>
			<path fill="#2ABC15" d="M121.951,321.766c1.604,1.604,3.78,2.5,6.033,2.5c0.282,0,0.555-0.008,0.845-0.043
				c2.543-0.247,4.838-1.63,6.255-3.755l34.133-51.2c2.611-3.925,1.554-9.225-2.363-11.836c-3.935-2.62-9.216-1.553-11.836,2.364
				l-28.356,42.539l-9.711-9.702c-3.336-3.337-8.729-3.337-12.066,0c-3.336,3.337-3.337,8.729,0,12.065L121.951,321.766z"/>
		</g>
	</g>
</g>
</svg>
