<?xml version="1.0" encoding="utf-8"?>
<!-- Generator: Adobe Illustrator 16.0.0, SVG Export Plug-In . SVG Version: 6.00 Build 0)  -->
<!DOCTYPE svg PUBLIC "-//W3C//DTD SVG 1.1//EN" "http://www.w3.org/Graphics/SVG/1.1/DTD/svg11.dtd">
<svg version="1.1" id="Layer_1" xmlns="http://www.w3.org/2000/svg" xmlns:xlink="http://www.w3.org/1999/xlink" x="0px" y="0px"
	 width="512px" height="512px" viewBox="0 0 512 512" enable-background="new 0 0 512 512" xml:space="preserve">
<g>
	<path fill-rule="evenodd" clip-rule="evenodd" fill="#09D312" d="M291.746,21.5c9.146,2.442,17.285,6.661,21.085,15.767
		c2.101,5.032,3.378,10.8,3.405,16.243c0.252,50.021,0.187,100.044,0.066,150.065c-0.01,3.43,1.309,5.254,3.731,7.506
		c13.343,12.417,26.542,24.998,39.485,37.833c11.654,11.561,22.898,23.533,34.358,35.293c4.869,4.994,7.452,11.076,8.267,17.857
		c0.973,8.074-0.415,15.846-2.329,23.809c-3.786,15.762-7.084,31.714-9.309,47.762c-4.82,34.754-8.864,69.615-13.141,104.442
		c-0.564,4.589-1.747,8.607-6.188,10.891c-31.044,0-62.087,0-93.128,0c-4.535-2.465-6.294-6.364-5.698-11.36
		c0.432-3.601-0.94-6.234-3.29-8.969c-16.347-19.009-27.425-40.97-33.327-65.148c-3.077-12.607-3.551-25.875-4.884-38.877
		c-2.078-20.266-4.814-40.379-9.704-60.217c-2.471-10.021-3.299-20.391-1.573-30.793c2.866-17.265,14.373-20.17,27.286-11.104
		c9.12,6.403,13.43,16.378,16.549,26.639c2.421,7.963,3.536,16.32,5.889,24.308c1.731,5.873,3.933,11.772,6.986,17.046
		c3.905,6.741,8.876,12.867,13.386,19.257c0.476-0.238,0.952-0.476,1.429-0.713c0-89.435,0-178.869,0-268.74
		c-9.525,0.921-18.324-1.146-25.364-8.077c-7.07-6.962-9.699-15.599-8.528-25.734c-29.541,0-58.813,0-88.674,0
		c0.935,9.496-1.209,18.297-8.187,25.278c-6.989,6.993-15.624,9.591-25.795,8.38c0,71.493,0,142.728,0,214.534
		c10.346-1.218,19.917,0.455,27.575,8.228c7.555,7.666,9.427,17.033,7.86,27.931c8.324,0,16.187-0.005,24.051,0.003
		c6.115,0.005,6.635,0.521,7.267,6.619c0.606,5.856,1.295,11.703,1.974,17.799c-1.616,0.115-2.801,0.272-3.987,0.273
		c-19.625,0.015-39.252,0.082-58.879-0.013c-15.18-0.073-26.279-8.222-29.798-21.972c-0.854-3.335-1.031-6.92-1.033-10.391
		c-0.054-89.764-0.053-179.528-0.033-269.291c0.003-17.322,5.882-25.094,24.243-32.363C186.443,21.5,239.095,21.5,291.746,21.5z"/>
	<path fill-rule="evenodd" clip-rule="evenodd" fill="#09D312" d="M199.097,252.215c-28.595-6.086-50.234-33.491-49.564-62.341
		c0.706-30.421,22.333-56.458,51.167-61.596c42.191-7.52,78.826,25.392,75.361,67.951c-1.155,14.208-6.888,26.61-16.483,37.267
		c-2.318,2.576-4.189,2.945-7.38,1.574c-11.187-4.811-22.625-5.646-34.106-0.868C209.576,237.748,203.83,244.311,199.097,252.215z
		 M256.2,191.556c0.003-5.829-0.031-5.955-5.709-6.027c-2.998-0.039-5.149-0.667-6.303-3.919
		c-2.99-8.435-9.093-13.443-18.084-13.517c-8.995-0.074-14.95,5.013-18.491,13.154c-1.756,4.034-3.623,8.035-5.709,11.906
		c-1.356,2.517-3.774,4.911-6.577,3.271c-1.952-1.142-3.732-4.104-3.916-6.391c-0.284-3.507,0.518-7.23,1.493-10.683
		c1.587-5.627,1.803-5.566-4.098-7.308c-5.886-1.738-6.657-1.324-8.35,4.589c-0.375,1.314-0.827,2.646-0.919,3.993
		c-0.22,3.259-1.865,4.646-5.061,4.285c-4.759-0.536-4.912,2.459-5.024,6.027c-0.124,3.919,1.583,5.373,5.182,4.834
		c3.723-0.558,5.448,1.245,6.705,4.506c1.989,5.154,5.416,9.165,10.822,11.026c9.123,3.139,17.592-0.514,22.39-9.806
		c2.157-4.178,3.438-8.871,5.994-12.751c1.534-2.329,4.675-4.775,7.255-4.963c3.836-0.28,5.716,3.518,5.727,6.982
		c0.013,4.017-0.51,8.2-1.719,12.021c-2.406,7.6-2.628,7.382,4.934,9.495c3.561,0.993,5.57-0.017,6.524-3.462
		c0.728-2.63,1.705-5.228,2.084-7.909c0.476-3.377,2.038-4.709,5.435-4.355C254.695,196.966,257.074,195.561,256.2,191.556z"/>
	<path fill-rule="evenodd" clip-rule="evenodd" fill="#09D312" d="M233.577,98.283c-0.066,9.694-7.76,17.318-17.46,17.302
		c-9.601-0.017-17.436-7.811-17.469-17.378c-0.034-9.793,7.911-17.619,17.776-17.509C226.115,80.805,233.645,88.526,233.577,98.283z
		"/>
</g>
</svg>
